<?xml version="1.0" encoding="UTF-8"?>
<svg id="Layer_1" xmlns="http://www.w3.org/2000/svg" xmlns:xlink="http://www.w3.org/1999/xlink" version="1.1" viewBox="0 0 286.3 116.2">
  <!-- Generator: Adobe Illustrator 29.5.0, SVG Export Plug-In . SVG Version: 2.1.0 Build 137)  -->
  <defs>
    <style>
      .st0 {
        fill: url(#linear-gradient1);
      }

      .st1 {
        fill: #4673a5;
      }

      .st2 {
        fill: url(#linear-gradient);
      }

      .st3 {
        fill: #ffb100;
        stroke: #ffb100;
        stroke-linejoin: round;
        stroke-width: .2px;
      }
    </style>
    <linearGradient id="linear-gradient" x1="1819.5" y1="-753.5" x2="1924.2" y2="-858.3" gradientTransform="translate(-1692 858)" gradientUnits="userSpaceOnUse">
      <stop offset="0" stop-color="#004982"/>
      <stop offset="1" stop-color="#4673a5"/>
    </linearGradient>
    <linearGradient id="linear-gradient1" x1="1943.9" y1="-797.6" x2="1730.5" y2="-827.6" gradientTransform="translate(-1692 858)" gradientUnits="userSpaceOnUse">
      <stop offset="0" stop-color="#4673a5"/>
      <stop offset="1" stop-color="#6283b2"/>
    </linearGradient>
  </defs>
  <g id="Foreground">
    <path class="st2" d="M235.7,67.7c-3.6-6.3-22.8-61.3-94.2-52.5l-40.1,52.5h-43.4L118.2,2.9c103.2-13.3,137.9,38.5,157,64.8h-39.5Z"/>
    <path class="st0" d="M273.6,67.7c-2.4-7.6-15.7-13.2-41.9-19-40.5-9-88.7-15-211.3-12.2-3.8,0-3.8,1.8.1,1.7,164.8-3.7,209.2,16.1,215.2,29.5h37.9Z"/>
  </g>
  <polygon class="st3" points="11.4 34.9 6.6 32.4 9.6 36.3 .5 37.3 9.6 38.3 6.6 42.1 11.4 39.7 12.6 47.1 13.9 39.7 18.6 42.1 15.7 38.3 24.8 37.3 15.7 36.3 18.6 32.4 13.9 34.9 12.6 27.6 11.4 34.9"/>
  <g>
    <path class="st1" d="M65,78.1l-1.2,3c-.4-.3-.9-.5-1.5-.6s-1.2-.2-1.7-.2c-1.5,0-2.7.5-3.7,1.4s-1.5,2.1-1.5,3.6.2,1.8.6,2.6.9,1.4,1.6,1.8c.7.4,1.5.7,2.5.7h1.3c.3,0,.7-.2,1-.3l1.2-.4,1.2,3c-.6.3-1.3.6-2.2.8-.9.2-1.9.3-2.9.3s-2.5-.2-3.5-.6-1.9-1-2.7-1.7c-.7-.7-1.3-1.6-1.7-2.7-.4-1-.6-2.2-.6-3.5s.2-2.3.6-3.3c.4-1,1-1.9,1.8-2.6s1.7-1.3,2.8-1.7c1.1-.4,2.4-.6,3.8-.6,2.1,0,3.7.4,4.9,1.1M75.9,89.6l1.3,2.3c-.6.5-1.4,1-2.4,1.3-.9.3-1.9.4-2.8.4s-2.4-.3-3.3-.8c-.9-.6-1.6-1.3-2-2.2-.4-.9-.7-1.9-.7-2.9s.3-2.2.8-3.2,1.3-1.8,2.2-2.3c.9-.6,2-.9,3.1-.9,2,0,3.5.6,4.4,1.9s1.3,3,1.3,5.1h-7.9c0,.6.2,1.1.6,1.6s1.1.8,2.1.8,1.2,0,1.6-.3c.5-.2,1-.5,1.5-.9M70,86.1h4.3c0-.4,0-.8-.2-1.1,0-.3-.3-.6-.6-.8-.3-.2-.6-.3-1-.3s-1.1.2-1.6.7-.7,1-.9,1.6M80,93.2v-11.5h4v1.3c.5-.5,1.1-.9,1.7-1.2.6-.3,1.3-.5,2-.5,1.2,0,2.2.4,2.8,1.1.6.7.9,1.8.9,3.4v7.4h-3.9v-6.8c0-1.6,0-.9-.3-1.2-.2-.3-.6-.5-1.1-.5s-.6,0-1,.3c-.4.2-.7.5-1,.7v7.4h-4.1ZM92.8,84.6v-2.9h1.8v-3.9h3.9v3.9h3.1v2.9h-3.3v4.2c0,.5,0,.9.2,1.1s.5.4.9.4.9-.2,1.4-.6l.9,2.7c-1.2.8-2.5,1.1-3.9,1.1s-1.4,0-1.8-.4c-.5-.2-.8-.5-1-1-.2-.4-.3-.9-.4-1.4v-6.3h-1.7v.2ZM103.4,93.2v-11.5h4v1.6c.3-.4.5-.7.8-1,.2-.3.5-.5.9-.7s.8-.3,1.3-.3.9,0,1.3,0l-.5,3.9c-.5-.2-1-.3-1.4-.3s-.8,0-1.1.3c-.3.2-.6.4-.9.6-.2.2-.3.4-.3.5v6.6h-4v.2ZM112.1,87.5c0-1.2.2-2.2.7-3.1s1.2-1.7,2.2-2.2,2.1-.8,3.5-.8,2.5.3,3.5.8,1.7,1.3,2.2,2.2c.5.9.7,2,.7,3.1s-.2,2.2-.7,3.2c-.5.9-1.2,1.7-2.2,2.2s-2.1.8-3.5.8-2.5-.3-3.5-.8-1.7-1.3-2.2-2.2c-.5-.9-.7-2-.7-3.2M116,87.5c0,.9.2,1.6.6,2.2s1,.9,1.9.9,1.5-.3,1.9-.9.6-1.4.6-2.2-.2-1.6-.6-2.2-1-.9-1.9-.9-1.5.3-1.9.9-.6,1.3-.6,2.2M146.3,76.1v17.1h-3.8v-.8c-.4.3-.9.6-1.5.8-.5.2-1.1.3-1.7.4-1.1,0-2-.3-2.8-.8-.8-.6-1.4-1.3-1.8-2.2-.4-.9-.6-1.8-.6-2.8s.2-2.3.7-3.3,1.1-1.8,2-2.3c.9-.6,1.9-.9,3.1-.9s1.8.2,2.6.6v-5.8h3.8ZM142.4,89.5v-4.7c0-.2-.4-.4-.7-.5-.4,0-.7-.2-1-.2-.6,0-1.1,0-1.5.4s-.7.7-.9,1.2-.3,1-.3,1.6c0,.9.2,1.6.6,2.1.4.5,1,.8,1.8.8s1.4-.3,2-.8M158.3,89.6l1.3,2.3c-.6.5-1.4,1-2.4,1.3-.9.3-1.9.4-2.8.4s-2.4-.3-3.3-.8c-.9-.6-1.6-1.3-2-2.2-.4-.9-.7-1.9-.7-2.9s.3-2.2.8-3.2,1.3-1.8,2.2-2.3c.9-.6,2-.9,3.1-.9,2,0,3.5.6,4.4,1.9s1.3,3,1.3,5.1h-7.9c0,.6.2,1.1.6,1.6.4.5,1.1.8,2.1.8s1.2,0,1.6-.3c.5-.2,1-.5,1.6-.9M152.4,86.1h4.3c0-.4,0-.8-.2-1.1-.1-.3-.3-.6-.6-.8-.3-.2-.6-.3-1-.3s-1.1.2-1.6.7c-.4.4-.7,1-.9,1.6M168.4,93.2l6-15.7h4.6l5.7,15.7h-4.4l-1.2-3.6h-5.4l-1.2,3.6h-4.2,0ZM176.6,81l-1.7,5.4h3.3l-1.6-5.4h0ZM185.7,92.9l.9-2.6c.4.2.9.3,1.5.4s1.2.2,1.6.2.6,0,.9-.3c.3-.2.4-.4.4-.6s0-.3-.1-.5c0,0-.3-.2-.7-.4-.4,0-.8-.3-1.4-.5-.7-.2-1.2-.4-1.7-.7-.4-.3-.8-.7-1-1.1-.2-.5-.4-1-.4-1.7s.2-1.6.7-2.1c.5-.6,1.1-1,1.8-1.2.8-.3,1.6-.4,2.4-.4s1.2,0,1.7,0c.6,0,1.1.2,1.5.3.4,0,.7.2.8.3l-.7,2.5c-.4,0-.9-.2-1.3-.3-.5,0-1,0-1.4,0s-.7,0-1,.2c-.3,0-.4.4-.4.7s0,.5.3.6c.2.2.6.3,1.2.4,1.3.3,2.2.6,2.9,1.2.7.5,1,1.4,1,2.6s-.5,2.4-1.5,3-2.3.9-3.8.9-1.6,0-2.4-.3c-.8-.2-1.4-.3-1.7-.5M195.8,84.6v-2.9h1.8v-3.9h3.9v3.9h3.1v2.9h-3.3v4.2c0,.5,0,.9.2,1.1s.5.4.9.4.9-.2,1.4-.6l.9,2.7c-1.2.8-2.5,1.1-3.9,1.1s-1.4,0-1.8-.4c-.5-.2-.8-.5-1-1-.2-.4-.3-.9-.4-1.4v-6.3h-1.7v.2ZM206.4,93.2v-11.5h4v1.6c.3-.4.5-.7.8-1,.2-.3.5-.5.9-.7s.8-.3,1.3-.3.9,0,1.3,0l-.5,3.9c-.5-.2-1-.3-1.4-.3s-.8,0-1.1.3c-.3.2-.6.4-.9.6-.2.2-.3.4-.3.5v6.6h-4v.2ZM215.1,87.5c0-1.2.2-2.2.7-3.1s1.2-1.7,2.2-2.2,2.1-.8,3.5-.8,2.5.3,3.5.8,1.7,1.3,2.2,2.2c.5.9.7,2,.7,3.1s-.2,2.2-.7,3.2c-.5.9-1.2,1.7-2.2,2.2s-2.1.8-3.5.8-2.5-.3-3.5-.8-1.7-1.3-2.2-2.2c-.5-.9-.7-2-.7-3.2M219,87.5c0,.9.2,1.6.6,2.2.4.6,1,.9,1.9.9s1.5-.3,1.9-.9.6-1.4.6-2.2-.2-1.6-.6-2.2c-.4-.6-1-.9-1.9-.9s-1.5.3-1.9.9-.6,1.3-.6,2.2M230.6,93.2v-8.6h-1.7v-2.9h1.8c0-1,0-1.9.3-2.6.2-.7.5-1.3.9-1.7.4-.5.9-.8,1.6-1,.7-.2,1.5-.3,2.5-.3h1.7v2.9h-.5c-.9,0-1.5,0-1.9.4s-.6.8-.6,1.6v.7h2.9v2.9h-2.9v8.6h-4.1ZM238.8,93.2v-11.5h4v11.5h-4ZM238.7,79.3l3.9-2.7,1.9,2.1-4.8,1.7-1-1.1h0ZM244.9,92.9l.9-2.6c.4.2.9.3,1.6.4.6,0,1.2.2,1.6.2s.6,0,.9-.3c.3-.2.4-.4.4-.6s0-.3-.1-.5c0,0-.3-.2-.7-.4-.4,0-.8-.3-1.4-.5-.7-.2-1.2-.4-1.7-.7-.4-.3-.8-.7-1-1.1-.2-.5-.4-1-.4-1.7s.2-1.6.7-2.1c.5-.6,1.1-1,1.8-1.2.8-.3,1.6-.4,2.4-.4s1.2,0,1.7,0c.6,0,1.1.2,1.5.3.4,0,.7.2.8.3l-.7,2.5c-.4,0-.9-.2-1.3-.3-.5,0-1,0-1.4,0s-.7,0-1,.2c-.3,0-.4.4-.4.7s0,.5.3.6c.2.2.6.3,1.2.4,1.3.3,2.2.6,2.9,1.2.7.5,1,1.4,1,2.6s-.5,2.4-1.5,3-2.3.9-3.8.9-1.6,0-2.4-.3c-.8-.2-1.4-.3-1.7-.5M256.3,93.2v-11.5h4v11.5h-4ZM256.4,76.7h3.9v3.3h-3.9v-3.3ZM271.6,89.8l1.4,2.6c-.3.2-.8.4-1.2.6-.5.2-1,.3-1.5.4s-1,.2-1.4.2c-1.8,0-3.3-.5-4.5-1.5-1.1-1-1.7-2.5-1.7-4.3s.2-1.8.5-2.6c.3-.8.7-1.5,1.3-2,.6-.6,1.3-1,2-1.3.8-.3,1.7-.5,2.6-.5s.9,0,1.4,0c.5,0,.9.2,1.4.4.4,0,.8.3,1.1.5l-1.3,2.6c-.7-.3-1.3-.5-1.8-.5-1,0-1.8.3-2.4.8-.6.6-.9,1.3-.9,2.2s.3,1.5.8,2.1c.6.6,1.3.9,2.1.9s1.2-.2,2.1-.7M276.1,85.5l-1.3-2.2c1-.6,2-1.1,3-1.4s2-.5,3.1-.5,1.9.3,2.5.8.9,1.3.9,2.4v5.6c0,.5.2.8.7.8s.4,0,.5,0l.4,2.2c-.2.2-.7.3-1.4.5-.7,0-1.3.2-1.6.2s-1,0-1.3-.3c-.3-.2-.5-.5-.6-.9-.5.4-1,.7-1.6.9-.6.2-1.2.4-1.7.4-1,0-1.9-.3-2.6-.9s-1-1.4-1-2.4.1-1.4.4-1.9.7-.9,1.2-1.2c.5-.3,1.2-.6,2.1-.8.8-.2,1.7-.4,2.9-.5v-.4c0-.4-.1-.8-.4-1-.2-.2-.5-.3-.9-.3s-1,0-1.4.3c-.4.2-1,.5-1.9,1M280.7,90.3v-2.3h-.7c-.6,0-1.1.2-1.6.5s-.7.7-.7,1.3.1.6.4.8c.3.2.6.3.9.3s.7,0,1.1-.3c.3-.2.5-.3.5-.5"/>
    <path class="st1" d="M58.1,106.2v-6.1h1.7l-.2,15.2h-1.6v-1.4c-.2.5-.6.8-1.2,1.2-.6.3-1.2.5-1.8.5s-.9,0-1.4-.3c-.5-.2-.9-.5-1.3-.9-.4-.4-.7-1-1-1.7-.2-.7-.4-1.5-.4-2.4s.2-1.9.6-2.7,1-1.5,1.7-2,1.4-.7,2.2-.7,1.1,0,1.6.4.8.6,1,.9h.1ZM58.1,112.3v-4.5c-.3-.6-.6-1-1-1.2s-.8-.4-1.3-.4-1.1.2-1.5.6c-.5.4-.8.9-1.1,1.5-.2.6-.4,1.3-.4,1.9s0,1.6.4,2.2c.2.6.6,1,1,1.3s.8.4,1.3.4,1.1-.2,1.6-.6.9-.8,1.1-1.3M71.5,113.9l.4.8c-.6.5-1.2.7-1.9.7s-.8-.2-1-.5c-.3-.3-.4-.7-.4-1.2-.3.3-.5.6-.9.9-.3.3-.6.5-1,.6s-.7.2-1.2.2-1.1,0-1.5-.4c-.4-.2-.8-.6-1-1s-.4-1-.4-1.5c0-.9.3-1.6.9-2.1.6-.5,1.4-.9,2.2-1.1.9-.2,1.8-.3,2.7-.4v-1.3c0-.5,0-.8-.4-1.1-.2-.3-.6-.4-1.2-.4s-.8,0-1.2.3c-.4.2-1,.6-1.7,1.1l-.7-1c1.1-.7,1.8-1.2,2.3-1.4.5-.2,1.1-.3,1.8-.3s1,0,1.4.3c.4.2.6.5.8.9.2.4.3.8.3,1.4v5.4c0,.4,0,.8.2,1,0,.3.3.4.6.4s.5,0,.8-.4M68.4,112.8v-2.9c-.9,0-1.7.3-2.3.5-.6.2-1.1.5-1.4.8s-.5.8-.5,1.3.2,1,.5,1.3.8.4,1.3.4,1.5-.5,2.4-1.5M91.6,101.2h1.7v8.7c0,1.4-.4,2.5-.9,3.4-.5.8-1.2,1.4-2,1.7-.8.3-1.7.5-2.7.5s-2-.2-2.8-.5c-.8-.4-1.4-1-1.9-1.8s-.7-1.9-.7-3.3v-8.6h1.8v9.1c0,2.5,1.3,3.7,3.8,3.7s3.7-1.4,3.8-4.2v-8.6h-.1ZM97,115.2v-10.1h1.7v1.6c.4-.6.9-1.1,1.5-1.4s1.2-.5,1.9-.5,1.1,0,1.4.2c.4,0,.7.3.9.6.2.3.4.6.5.9,0,.4.2.8.2,1.3v7.4h-1.6v-7.2c0-.5-.2-.9-.5-1.2-.3-.3-.8-.4-1.3-.4s-1,.2-1.5.5-1,.8-1.5,1.4v7h-1.7ZM108.5,115.2v-10.1h1.7v10.1h-1.7ZM108.5,101.2h1.7v1.8h-1.7v-1.8ZM120.1,104.9l1.6.5-4,9.9h-1.6l-3.7-9.9,1.7-.4,2.8,8.4,3.2-8.4h0ZM131.8,109.9h-6.7v.4c0,1.1.2,2.1.7,2.9s1.2,1.1,2.1,1.1,1,0,1.4-.4c.4-.3.9-.6,1.4-1.1l.8.9c-.5.6-1.1,1-1.8,1.3-.6.3-1.3.5-2,.5s-1.7-.2-2.3-.6c-.7-.4-1.2-1-1.5-1.8s-.5-1.7-.5-2.8.2-1.8.6-2.6c.4-.8.9-1.5,1.6-2s1.5-.7,2.3-.7,1.6.2,2.1.6c.6.4,1,1,1.3,1.7s.4,1.5.4,2.5v.3-.2ZM125.3,108.9h4.9c0-.8-.2-1.5-.5-2-.4-.5-.9-.8-1.7-.8s-.9,0-1.3.4-.7.6-.9,1c-.2.4-.4.9-.5,1.4M134.7,115.2v-10.1h1.7v2c.2-.5.6-1.1,1.1-1.5.5-.5,1.1-.7,1.7-.7s.6,0,.9,0l-.5,1.5h-.6c-.4,0-.8.2-1.3.5s-.9.9-1.3,1.6v6.6h-1.7,0ZM141,114.5l.7-1.1c.4.3.8.5,1.1.6.3.2.7.2,1.1.2s.6,0,.9-.2c.3,0,.6-.3.7-.5.2-.3.3-.6.3-.9,0-.6-.2-1-.6-1.2-.4-.3-.9-.5-1.7-.8s-1.4-.7-1.8-1c-.4-.4-.6-.9-.6-1.7s.1-1.1.4-1.6c.3-.5.7-.8,1.2-1s1.1-.4,1.7-.4,1.1,0,1.6.2,1,.4,1.3.6l-.7,1c-.8-.5-1.4-.7-1.9-.7s-1.1,0-1.5.4-.5.7-.5,1.3.2.8.5,1,.9.5,1.7.8,1.4.7,1.8,1.1c.4.4.6,1,.6,1.8s0,.9-.3,1.3c-.2.4-.4.7-.7,1s-.7.5-1.1.6c-.4,0-.8.2-1.2.2-1.1,0-2.1-.3-3.1-1M150,115.2v-10.1h1.7v10.1h-1.7ZM150,101.2h1.7v1.8h-1.7v-1.8ZM161.5,106.2v-6.1h1.7l-.2,15.2h-1.6v-1.4c-.2.5-.6.8-1.2,1.2-.6.3-1.2.5-1.8.5s-.9,0-1.4-.3c-.5-.2-.9-.5-1.3-.9-.4-.4-.7-1-1-1.7-.2-.7-.4-1.5-.4-2.4s.2-1.9.6-2.7c.4-.8,1-1.5,1.7-2s1.4-.7,2.2-.7,1.1,0,1.6.4.8.6,1,.9h0ZM161.5,112.3v-4.5c-.3-.6-.6-1-1-1.2s-.8-.4-1.3-.4-1.1.2-1.5.6c-.5.4-.8.9-1.1,1.5-.2.6-.4,1.3-.4,1.9s.1,1.6.4,2.2c.2.6.6,1,1,1.3s.8.4,1.3.4,1.1-.2,1.6-.6.9-.8,1.1-1.3M174.8,113.9l.4.8c-.6.5-1.2.7-1.9.7s-.8-.2-1-.5c-.3-.3-.4-.7-.4-1.2-.3.3-.5.6-.8.9s-.6.5-1,.6-.7.2-1.2.2-1.1,0-1.5-.4c-.4-.2-.8-.6-1-1s-.4-1-.4-1.5c0-.9.3-1.6.9-2.1.6-.5,1.4-.9,2.2-1.1.9-.2,1.8-.3,2.7-.4v-1.3c0-.5-.1-.8-.4-1.1-.2-.3-.6-.4-1.2-.4s-.8,0-1.2.3c-.4.2-1,.6-1.7,1.1l-.7-1c1.1-.7,1.8-1.2,2.3-1.4.5-.2,1.1-.3,1.8-.3s1,0,1.4.3c.4.2.6.5.8.9s.3.8.3,1.4v5.4c0,.4,0,.8.2,1,.1.3.3.4.6.4s.5,0,.8-.4M171.8,112.8v-2.9c-.9,0-1.7.3-2.3.5s-1.1.5-1.4.8c-.3.3-.5.8-.5,1.3s.2,1,.5,1.3.8.4,1.3.4,1.5-.5,2.4-1.5M183.7,106.2v-6.1h1.7l-.2,15.2h-1.6v-1.4c-.2.5-.6.8-1.2,1.2-.6.3-1.2.5-1.8.5s-.9,0-1.4-.3c-.5-.2-.9-.5-1.3-.9-.4-.4-.7-1-1-1.7-.2-.7-.4-1.5-.4-2.4s.2-1.9.6-2.7c.4-.8,1-1.5,1.7-2s1.4-.7,2.2-.7,1.1,0,1.6.4.8.6,1,.9h0ZM183.6,112.3v-4.5c-.3-.6-.6-1-1-1.2s-.8-.4-1.3-.4-1.1.2-1.5.6c-.5.4-.8.9-1.1,1.5-.2.6-.4,1.3-.4,1.9s.1,1.6.4,2.2c.2.6.6,1,1,1.3s.8.4,1.3.4,1.1-.2,1.6-.6.9-.8,1.1-1.3M196.6,109.9h-6.7v.4c0,1.1.2,2.1.7,2.9s1.2,1.1,2.1,1.1,1,0,1.4-.4.9-.6,1.4-1.1l.8.9c-.5.6-1.1,1-1.8,1.3s-1.3.5-2,.5-1.7-.2-2.3-.6c-.7-.4-1.2-1-1.5-1.8s-.5-1.7-.5-2.8.2-1.8.6-2.6c.4-.8.9-1.5,1.6-2,.7-.5,1.5-.7,2.3-.7s1.6.2,2.1.6c.6.4,1,1,1.3,1.7s.4,1.5.4,2.5v.3-.2ZM190.1,108.9h4.9c0-.8-.2-1.5-.5-2-.4-.5-.9-.8-1.7-.8s-.9,0-1.3.4c-.4.3-.7.6-.9,1s-.4.9-.5,1.4M214,106.2v-6.1h1.7l-.2,15.2h-1.6v-1.4c-.2.5-.6.8-1.2,1.2-.6.3-1.2.5-1.8.5s-.9,0-1.4-.3c-.5-.2-.9-.5-1.3-.9-.4-.4-.7-1-1-1.7-.2-.7-.4-1.5-.4-2.4s.2-1.9.6-2.7c.4-.8,1-1.5,1.7-2s1.4-.7,2.2-.7,1.1,0,1.6.4.8.6,1,.9h0ZM213.9,112.3v-4.5c-.3-.6-.6-1-1-1.2s-.8-.4-1.3-.4-1.1.2-1.5.6c-.5.4-.8.9-1.1,1.5-.2.6-.4,1.3-.4,1.9s.1,1.6.4,2.2c.2.6.6,1,1,1.3s.8.4,1.3.4,1.1-.2,1.6-.6.9-.8,1.1-1.3M220.2,110.2c0,1.3.3,2.3.8,3,.6.7,1.3,1.1,2.1,1.1s.8,0,1.1-.3c.4-.2.7-.4,1-.8.3-.3.5-.8.7-1.3s.3-1.1.3-1.8-.1-1.7-.4-2.3c-.3-.6-.6-1.1-1.1-1.4-.4-.3-.9-.5-1.5-.5s-1.6.4-2.2,1.1c-.6.7-.9,1.7-.9,3M218.5,110.2c0-.9.2-1.8.6-2.6.4-.8.9-1.5,1.7-2,.7-.5,1.6-.8,2.6-.8s1.4,0,1.9.4c.6.2,1.1.6,1.5,1.1s.7,1,.9,1.7.3,1.4.3,2.2-.2,1.8-.6,2.6c-.4.8-.9,1.5-1.7,2-.7.5-1.6.8-2.6.8s-1.4,0-2-.4c-.6-.2-1.1-.6-1.5-1.1s-.7-1-.9-1.6-.3-1.4-.3-2.2M241,102.4v5.6h2.2c.5,0,1,0,1.5-.3.5-.2.8-.5,1.1-.9s.4-1,.4-1.6-.1-1-.3-1.4-.5-.7-1-1-1-.4-1.8-.4h-2.1,0ZM239.2,115.2v-14h4.3c.9,0,1.7.2,2.3.5.7.3,1.2.8,1.5,1.4.4.6.5,1.3.5,2.2s-.2,1.8-.7,2.4-1.1,1.1-1.8,1.4-1.5.4-2.4.4h-2v5.8h-1.8,0ZM251.7,110.2c0,1.3.3,2.3.8,3,.6.7,1.3,1.1,2.1,1.1s.8,0,1.1-.3c.4-.2.7-.4,1-.8.3-.3.5-.8.7-1.3s.3-1.1.3-1.8-.1-1.7-.4-2.3c-.3-.6-.6-1.1-1.1-1.4-.4-.3-.9-.5-1.5-.5s-1.6.4-2.2,1.1c-.6.7-.9,1.7-.9,3M250,110.2c0-.9.2-1.8.6-2.6.4-.8.9-1.5,1.7-2,.7-.5,1.6-.8,2.6-.8s1.4,0,1.9.4c.6.2,1.1.6,1.5,1.1s.7,1,.9,1.7c.2.7.3,1.4.3,2.2s-.2,1.8-.6,2.6c-.4.8-.9,1.5-1.7,2-.7.5-1.6.8-2.6.8s-1.4,0-2-.4c-.6-.2-1.1-.6-1.5-1.1s-.7-1-.9-1.6-.3-1.4-.3-2.2M262.3,115.2v-10.1h1.7v2c.2-.5.6-1.1,1.1-1.5.5-.5,1.1-.7,1.7-.7s.6,0,.9,0l-.5,1.5h-.6c-.4,0-.8.2-1.3.5s-.9.9-1.3,1.6v6.6h-1.7ZM268.4,105.2h1.7v-3.7h1.6v3.7h2.7v1.2h-2.7v6.5c0,.9,0,.8.2,1,.1.2.4.3.7.3.5,0,1-.2,1.6-.6l.5,1.1c-.4.2-.8.4-1.2.6-.5.2-.9.3-1.3.3-1.4,0-2.1-.9-2.1-2.6v-6.6h-1.7v-1.2h0ZM277.7,110.2c0,1.3.3,2.3.8,3,.6.7,1.3,1.1,2.1,1.1s.8,0,1.1-.3c.4-.2.7-.4,1-.8.3-.3.5-.8.7-1.3s.3-1.1.3-1.8-.1-1.7-.4-2.3c-.3-.6-.6-1.1-1.1-1.4-.4-.3-.9-.5-1.5-.5s-1.6.4-2.2,1.1-.9,1.7-.9,3M276,110.2c0-.9.2-1.8.6-2.6.4-.8.9-1.5,1.7-2,.7-.5,1.6-.8,2.6-.8s1.4,0,1.9.4c.6.2,1.1.6,1.5,1.1s.7,1,.9,1.7c.2.7.3,1.4.3,2.2s-.2,1.8-.6,2.6c-.4.8-.9,1.5-1.7,2-.7.5-1.6.8-2.6.8s-1.4,0-2-.4c-.6-.2-1.1-.6-1.5-1.1s-.7-1-.9-1.6c-.2-.6-.3-1.4-.3-2.2"/>
  </g>
</svg>